<svg xmlns="http://www.w3.org/2000/svg" aria-label="3D: общий вид квартиры" width="1000" height="820" viewBox="0 0 1000 820"><polygon points="507.8,37.9 556.2,65.9 530.4,80.8 481.9,52.8" fill="#eee9e0" stroke="#c3bfb7" stroke-width="0.6" stroke-linejoin="round"/><polygon points="556.2,267.4 530.4,282.3 530.4,80.8 556.2,65.9" fill="#ccc8c0" stroke="#a7a49d" stroke-width="0.6" stroke-linejoin="round"/><polygon points="481.9,254.4 530.4,282.3 530.4,80.8 481.9,52.8" fill="#b0aca5" stroke="#908d87" stroke-width="0.6" stroke-linejoin="round"/><polygon points="481.9,52.8 494.8,60.3 42.9,321.2 30.0,313.7" fill="#eee9e0" stroke="#c3bfb7" stroke-width="0.6" stroke-linejoin="round"/><polygon points="494.8,261.8 42.9,522.7 42.9,321.2 494.8,60.3" fill="#ccc8c0" stroke="#a7a49d" stroke-width="0.6" stroke-linejoin="round"/><polygon points="30.0,515.3 42.9,522.7 42.9,321.2 30.0,313.7" fill="#b0aca5" stroke="#908d87" stroke-width="0.6" stroke-linejoin="round"/><polygon points="556.2,204.0 672.6,271.2 646.8,286.1 530.4,218.9" fill="#eee9e0" stroke="#c3bfb7" stroke-width="0.6" stroke-linejoin="round"/><polygon points="672.6,334.6 646.8,349.5 646.8,286.1 672.6,271.2" fill="#ccc8c0" stroke="#a7a49d" stroke-width="0.6" stroke-linejoin="round"/><polygon points="530.4,282.3 646.8,349.5 646.8,286.1 530.4,218.9" fill="#b0aca5" stroke="#908d87" stroke-width="0.6" stroke-linejoin="round"/><polygon points="544.6,106.2 661.0,173.4 658.4,174.9 542.0,107.7" fill="#bcd6dc" fill-opacity="0.45" stroke="#9aafb4" stroke-width="0.6" stroke-linejoin="round"/><polygon points="661.0,277.9 658.4,279.4 658.4,174.9 661.0,173.4" fill="#a1b8bd" fill-opacity="0.45" stroke="#84969b" stroke-width="0.6" stroke-linejoin="round"/><polygon points="542.0,212.2 658.4,279.4 658.4,174.9 542.0,107.7" fill="#8b9ea2" fill-opacity="0.45" stroke="#728185" stroke-width="0.6" stroke-linejoin="round"/><polygon points="556.2,65.9 672.6,133.0 646.8,148.0 530.4,80.8" fill="#eee9e0" stroke="#c3bfb7" stroke-width="0.6" stroke-linejoin="round"/><polygon points="672.6,166.6 646.8,181.6 646.8,148.0 672.6,133.0" fill="#ccc8c0" stroke="#a7a49d" stroke-width="0.6" stroke-linejoin="round"/><polygon points="530.4,114.4 646.8,181.6 646.8,148.0 530.4,80.8" fill="#b0aca5" stroke="#908d87" stroke-width="0.6" stroke-linejoin="round"/><polygon points="672.6,133.0 724.3,162.9 698.5,177.8 646.8,148.0" fill="#eee9e0" stroke="#c3bfb7" stroke-width="0.6" stroke-linejoin="round"/><polygon points="724.3,364.5 698.5,379.4 698.5,177.8 724.3,162.9" fill="#ccc8c0" stroke="#a7a49d" stroke-width="0.6" stroke-linejoin="round"/><polygon points="646.8,349.5 698.5,379.4 698.5,177.8 646.8,148.0" fill="#b0aca5" stroke="#908d87" stroke-width="0.6" stroke-linejoin="round"/><polygon points="494.8,261.8 681.0,369.3 242.0,622.8 55.9,515.3" fill="#d9bc93" stroke="#b19a78" stroke-width="0.6" stroke-linejoin="round"/><polygon points="681.0,373.8 242.0,627.2 242.0,622.8 681.0,369.3" fill="#baa17e" stroke="#998467" stroke-width="0.6" stroke-linejoin="round"/><polygon points="55.9,519.7 242.0,627.2 242.0,622.8 55.9,515.3" fill="#a08b6c" stroke="#837259" stroke-width="0.6" stroke-linejoin="round"/><polygon points="724.3,297.3 902.1,399.9 876.3,414.9 698.5,312.2" fill="#eee9e0" stroke="#c3bfb7" stroke-width="0.6" stroke-linejoin="round"/><polygon points="902.1,467.1 876.3,482.0 876.3,414.9 902.1,399.9" fill="#ccc8c0" stroke="#a7a49d" stroke-width="0.6" stroke-linejoin="round"/><polygon points="698.5,379.4 876.3,482.0 876.3,414.9 698.5,312.2" fill="#b0aca5" stroke="#908d87" stroke-width="0.6" stroke-linejoin="round"/><polygon points="472.2,230.1 494.8,243.2 472.2,256.2 449.6,243.2" fill="#c79e6e" stroke="#a3815a" stroke-width="0.6" stroke-linejoin="round"/><polygon points="494.8,254.4 472.2,267.4 472.2,256.2 494.8,243.2" fill="#ab875e" stroke="#8c6f4d" stroke-width="0.6" stroke-linejoin="round"/><polygon points="449.6,254.4 472.2,267.4 472.2,256.2 449.6,243.2" fill="#937451" stroke="#785f42" stroke-width="0.6" stroke-linejoin="round"/><polygon points="536.9,233.8 640.3,293.5 635.1,296.5 531.7,236.8" fill="#f4f1eb" stroke="#c8c5c0" stroke-width="0.6" stroke-linejoin="round"/><polygon points="640.3,334.6 635.1,337.6 635.1,296.5 640.3,293.5" fill="#d1cfca" stroke="#aca9a5" stroke-width="0.6" stroke-linejoin="round"/><polygon points="531.7,277.9 635.1,337.6 635.1,296.5 531.7,236.8" fill="#b4b2ad" stroke="#94928e" stroke-width="0.6" stroke-linejoin="round"/><polygon points="712.7,192.0 890.5,294.7 887.9,296.2 710.1,193.5" fill="#bcd6dc" fill-opacity="0.45" stroke="#9aafb4" stroke-width="0.6" stroke-linejoin="round"/><polygon points="890.5,406.6 887.9,408.1 887.9,296.2 890.5,294.7" fill="#a1b8bd" fill-opacity="0.45" stroke="#84969b" stroke-width="0.6" stroke-linejoin="round"/><polygon points="710.1,305.5 887.9,408.1 887.9,296.2 710.1,193.5" fill="#8b9ea2" fill-opacity="0.45" stroke="#728185" stroke-width="0.6" stroke-linejoin="round"/><polygon points="449.6,205.8 454.7,208.8 344.8,272.3 339.7,269.3" fill="#c79e6e" stroke="#a3815a" stroke-width="0.6" stroke-linejoin="round"/><polygon points="454.7,290.9 344.8,354.4 344.8,272.3 454.7,208.8" fill="#ab875e" stroke="#8c6f4d" stroke-width="0.6" stroke-linejoin="round"/><polygon points="339.7,351.4 344.8,354.4 344.8,272.3 339.7,269.3" fill="#937451" stroke="#785f42" stroke-width="0.6" stroke-linejoin="round"/><polygon points="681.0,294.7 688.8,299.1 587.3,357.7 579.5,353.3" fill="#8f877c" stroke="#756e65" stroke-width="0.6" stroke-linejoin="round"/><polygon points="688.8,373.8 587.3,432.4 587.3,357.7 688.8,299.1" fill="#ccc8c0" stroke="#a7a49d" stroke-width="0.6" stroke-linejoin="round"/><polygon points="579.5,427.9 587.3,432.4 587.3,357.7 579.5,353.3" fill="#b0aca5" stroke="#908d87" stroke-width="0.6" stroke-linejoin="round"/><polygon points="724.3,162.9 902.1,265.6 876.3,280.5 698.5,177.8" fill="#eee9e0" stroke="#c3bfb7" stroke-width="0.6" stroke-linejoin="round"/><polygon points="902.1,287.9 876.3,302.9 876.3,280.5 902.1,265.6" fill="#ccc8c0" stroke="#a7a49d" stroke-width="0.6" stroke-linejoin="round"/><polygon points="698.5,200.2 876.3,302.9 876.3,280.5 698.5,177.8" fill="#b0aca5" stroke="#908d87" stroke-width="0.6" stroke-linejoin="round"/><polygon points="446.3,263.7 575.6,338.3 472.2,398.1 342.9,323.4" fill="#c79e6e" stroke="#a3815a" stroke-width="0.6" stroke-linejoin="round"/><polygon points="575.6,364.5 472.2,424.2 472.2,398.1 575.6,338.3" fill="#ab875e" stroke="#8c6f4d" stroke-width="0.6" stroke-linejoin="round"/><polygon points="342.9,349.5 472.2,424.2 472.2,398.1 342.9,323.4" fill="#937451" stroke="#785f42" stroke-width="0.6" stroke-linejoin="round"/><polygon points="902.1,265.6 970.0,304.7 944.1,319.7 876.3,280.5" fill="#eee9e0" stroke="#c3bfb7" stroke-width="0.6" stroke-linejoin="round"/><polygon points="970.0,506.3 944.1,521.2 944.1,319.7 970.0,304.7" fill="#ccc8c0" stroke="#a7a49d" stroke-width="0.6" stroke-linejoin="round"/><polygon points="876.3,482.0 944.1,521.2 944.1,319.7 876.3,280.5" fill="#b0aca5" stroke="#908d87" stroke-width="0.6" stroke-linejoin="round"/><polygon points="446.3,252.5 569.2,323.4 472.2,379.4 349.4,308.5" fill="#eee8de" stroke="#c3beb6" stroke-width="0.6" stroke-linejoin="round"/><polygon points="569.2,338.3 472.2,394.3 472.2,379.4 569.2,323.4" fill="#ccc7be" stroke="#a7a39c" stroke-width="0.6" stroke-linejoin="round"/><polygon points="349.4,323.4 472.2,394.3 472.2,379.4 349.4,308.5" fill="#b0aba4" stroke="#908c86" stroke-width="0.6" stroke-linejoin="round"/><polygon points="688.8,373.8 884.0,486.5 801.9,533.9 606.7,421.2" fill="#d9bc93" stroke="#b19a78" stroke-width="0.6" stroke-linejoin="round"/><polygon points="884.0,491.0 801.9,538.4 801.9,533.9 884.0,486.5" fill="#baa17e" stroke="#998467" stroke-width="0.6" stroke-linejoin="round"/><polygon points="606.7,425.7 801.9,538.4 801.9,533.9 606.7,421.2" fill="#a08b6c" stroke="#837259" stroke-width="0.6" stroke-linejoin="round"/><polygon points="459.3,420.5 461.2,421.6 453.5,426.0 451.5,424.9" fill="#8f877c" stroke="#756e65" stroke-width="0.6" stroke-linejoin="round"/><polygon points="461.2,496.2 453.5,500.7 453.5,426.0 461.2,421.6" fill="#ccc8c0" stroke="#a7a49d" stroke-width="0.6" stroke-linejoin="round"/><polygon points="451.5,499.6 453.5,500.7 453.5,426.0 451.5,424.9" fill="#b0aca5" stroke="#908d87" stroke-width="0.6" stroke-linejoin="round"/><polygon points="443.1,249.9 464.4,262.2 426.9,283.8 405.6,271.5" fill="#f4f1eb" stroke="#c8c5c0" stroke-width="0.6" stroke-linejoin="round"/><polygon points="464.4,271.9 426.9,293.5 426.9,283.8 464.4,262.2" fill="#d1cfca" stroke="#aca9a5" stroke-width="0.6" stroke-linejoin="round"/><polygon points="405.6,281.2 426.9,293.5 426.9,283.8 405.6,271.5" fill="#b4b2ad" stroke="#94928e" stroke-width="0.6" stroke-linejoin="round"/><polygon points="527.2,295.4 569.2,319.7 472.2,375.7 430.2,351.4" fill="#9dae92" stroke="#808e77" stroke-width="0.6" stroke-linejoin="round"/><polygon points="569.2,323.4 472.2,379.4 472.2,375.7 569.2,319.7" fill="#87957d" stroke="#6e7a66" stroke-width="0.6" stroke-linejoin="round"/><polygon points="430.2,355.1 472.2,379.4 472.2,375.7 430.2,351.4" fill="#74806c" stroke="#5f6958" stroke-width="0.6" stroke-linejoin="round"/><polygon points="650.0,217.0 688.8,239.4 645.5,264.4 606.7,242.0" fill="#f4f1eb" stroke="#c8c5c0" stroke-width="0.6" stroke-linejoin="round"/><polygon points="688.8,418.6 645.5,443.6 645.5,264.4 688.8,239.4" fill="#d1cfca" stroke="#aca9a5" stroke-width="0.6" stroke-linejoin="round"/><polygon points="606.7,421.2 645.5,443.6 645.5,264.4 606.7,242.0" fill="#b4b2ad" stroke="#94928e" stroke-width="0.6" stroke-linejoin="round"/><polygon points="730.8,349.5 734.7,351.8 698.5,372.7 694.6,370.4" fill="#4b4845" stroke="#3d3b38" stroke-width="0.6" stroke-linejoin="round"/><polygon points="734.7,405.5 698.5,426.4 698.5,372.7 734.7,351.8" fill="#403d3b" stroke="#343230" stroke-width="0.6" stroke-linejoin="round"/><polygon points="694.6,424.2 698.5,426.4 698.5,372.7 694.6,370.4" fill="#373533" stroke="#2d2b29" stroke-width="0.6" stroke-linejoin="round"/><polygon points="808.4,394.3 812.3,396.6 776.1,417.5 772.2,415.2" fill="#4b4845" stroke="#3d3b38" stroke-width="0.6" stroke-linejoin="round"/><polygon points="812.3,450.3 776.1,471.2 776.1,417.5 812.3,396.6" fill="#403d3b" stroke="#343230" stroke-width="0.6" stroke-linejoin="round"/><polygon points="772.2,469.0 776.1,471.2 776.1,417.5 772.2,415.2" fill="#373533" stroke="#2d2b29" stroke-width="0.6" stroke-linejoin="round"/><polygon points="397.9,276.0 419.2,288.3 381.7,310.0 360.4,297.7" fill="#f4f1eb" stroke="#c8c5c0" stroke-width="0.6" stroke-linejoin="round"/><polygon points="419.2,298.0 381.7,319.7 381.7,310.0 419.2,288.3" fill="#d1cfca" stroke="#aca9a5" stroke-width="0.6" stroke-linejoin="round"/><polygon points="360.4,307.4 381.7,319.7 381.7,310.0 360.4,297.7" fill="#b4b2ad" stroke="#94928e" stroke-width="0.6" stroke-linejoin="round"/><polygon points="606.7,346.5 632.5,361.5 613.1,372.7 587.3,357.7" fill="#8f877c" stroke="#756e65" stroke-width="0.6" stroke-linejoin="round"/><polygon points="632.5,436.1 613.1,447.3 613.1,372.7 632.5,361.5" fill="#ccc8c0" stroke="#a7a49d" stroke-width="0.6" stroke-linejoin="round"/><polygon points="587.3,432.4 613.1,447.3 613.1,372.7 587.3,357.7" fill="#b0aca5" stroke="#908d87" stroke-width="0.6" stroke-linejoin="round"/><polygon points="730.8,345.8 814.8,394.3 776.1,416.7 692.0,368.2" fill="#c79e6e" stroke="#a3815a" stroke-width="0.6" stroke-linejoin="round"/><polygon points="814.8,396.6 776.1,419.0 776.1,416.7 814.8,394.3" fill="#ab875e" stroke="#8c6f4d" stroke-width="0.6" stroke-linejoin="round"/><polygon points="692.0,370.4 776.1,419.0 776.1,416.7 692.0,368.2" fill="#937451" stroke="#785f42" stroke-width="0.6" stroke-linejoin="round"/><polygon points="339.7,306.6 362.3,319.7 339.7,332.7 317.0,319.7" fill="#c79e6e" stroke="#a3815a" stroke-width="0.6" stroke-linejoin="round"/><polygon points="362.3,330.9 339.7,343.9 339.7,332.7 362.3,319.7" fill="#ab875e" stroke="#8c6f4d" stroke-width="0.6" stroke-linejoin="round"/><polygon points="317.0,330.9 339.7,343.9 339.7,332.7 317.0,319.7" fill="#937451" stroke="#785f42" stroke-width="0.6" stroke-linejoin="round"/><polygon points="716.6,407.8 742.4,422.7 716.6,437.6 690.7,422.7" fill="#9dae92" stroke="#808e77" stroke-width="0.6" stroke-linejoin="round"/><polygon points="742.4,458.5 716.6,473.5 716.6,437.6 742.4,422.7" fill="#87957d" stroke="#6e7a66" stroke-width="0.6" stroke-linejoin="round"/><polygon points="690.7,458.5 716.6,473.5 716.6,437.6 690.7,422.7" fill="#74806c" stroke="#5f6958" stroke-width="0.6" stroke-linejoin="round"/><polygon points="884.0,411.9 931.2,439.1 849.1,486.5 801.9,459.3" fill="#8f877c" stroke="#756e65" stroke-width="0.6" stroke-linejoin="round"/><polygon points="931.2,513.8 849.1,561.2 849.1,486.5 931.2,439.1" fill="#ccc8c0" stroke="#a7a49d" stroke-width="0.6" stroke-linejoin="round"/><polygon points="801.9,533.9 849.1,561.2 849.1,486.5 801.9,459.3" fill="#b0aca5" stroke="#908d87" stroke-width="0.6" stroke-linejoin="round"/><polygon points="310.6,166.6 439.9,241.3 404.3,261.8 275.0,187.2" fill="#f4f1eb" stroke="#c8c5c0" stroke-width="0.6" stroke-linejoin="round"/><polygon points="439.9,442.8 404.3,463.4 404.3,261.8 439.9,241.3" fill="#d1cfca" stroke="#aca9a5" stroke-width="0.6" stroke-linejoin="round"/><polygon points="275.0,388.7 404.3,463.4 404.3,261.8 275.0,187.2" fill="#b4b2ad" stroke="#94928e" stroke-width="0.6" stroke-linejoin="round"/><polygon points="632.5,372.7 742.4,436.1 723.0,447.3 613.1,383.9" fill="#8f877c" stroke="#756e65" stroke-width="0.6" stroke-linejoin="round"/><polygon points="742.4,499.6 723.0,510.8 723.0,447.3 742.4,436.1" fill="#ccc8c0" stroke="#a7a49d" stroke-width="0.6" stroke-linejoin="round"/><polygon points="613.1,447.3 723.0,510.8 723.0,447.3 613.1,383.9" fill="#b0aca5" stroke="#908d87" stroke-width="0.6" stroke-linejoin="round"/><polygon points="797.4,456.7 849.1,486.5 829.7,497.7 778.0,467.9" fill="#8f877c" stroke="#756e65" stroke-width="0.6" stroke-linejoin="round"/><polygon points="849.1,561.2 829.7,572.4 829.7,497.7 849.1,486.5" fill="#ccc8c0" stroke="#a7a49d" stroke-width="0.6" stroke-linejoin="round"/><polygon points="778.0,542.5 829.7,572.4 829.7,497.7 778.0,467.9" fill="#b0aca5" stroke="#908d87" stroke-width="0.6" stroke-linejoin="round"/><polygon points="275.0,314.1 407.6,390.6 399.8,395.1 267.3,318.6" fill="#8f877c" stroke="#756e65" stroke-width="0.6" stroke-linejoin="round"/><polygon points="407.6,465.2 399.8,469.7 399.8,395.1 407.6,390.6" fill="#ccc8c0" stroke="#a7a49d" stroke-width="0.6" stroke-linejoin="round"/><polygon points="267.3,393.2 399.8,469.7 399.8,395.1 267.3,318.6" fill="#b0aca5" stroke="#908d87" stroke-width="0.6" stroke-linejoin="round"/><polygon points="624.1,366.3 734.0,429.8 731.4,431.3 621.5,367.8" fill="#bcd6dc" fill-opacity="0.45" stroke="#9aafb4" stroke-width="0.6" stroke-linejoin="round"/><polygon points="734.0,441.0 731.4,442.5 731.4,431.3 734.0,429.8" fill="#a1b8bd" fill-opacity="0.45" stroke="#84969b" stroke-width="0.6" stroke-linejoin="round"/><polygon points="621.5,379.0 731.4,442.5 731.4,431.3 621.5,367.8" fill="#8b9ea2" fill-opacity="0.45" stroke="#728185" stroke-width="0.6" stroke-linejoin="round"/><polygon points="267.3,191.6 393.3,264.4 367.5,279.4 241.4,206.6" fill="#dcc29c" stroke="#b49f7f" stroke-width="0.6" stroke-linejoin="round"/><polygon points="393.3,466.0 367.5,480.9 367.5,279.4 393.3,264.4" fill="#bda686" stroke="#9b886e" stroke-width="0.6" stroke-linejoin="round"/><polygon points="241.4,408.1 367.5,480.9 367.5,279.4 241.4,206.6" fill="#a28f73" stroke="#85755e" stroke-width="0.6" stroke-linejoin="round"/><polygon points="742.4,424.9 752.1,430.5 732.7,441.7 723.0,436.1" fill="#8f877c" stroke="#756e65" stroke-width="0.6" stroke-linejoin="round"/><polygon points="752.1,505.2 732.7,516.4 732.7,441.7 752.1,430.5" fill="#ccc8c0" stroke="#a7a49d" stroke-width="0.6" stroke-linejoin="round"/><polygon points="723.0,510.8 732.7,516.4 732.7,441.7 723.0,436.1" fill="#b0aca5" stroke="#908d87" stroke-width="0.6" stroke-linejoin="round"/><polygon points="229.8,383.5 291.2,419.0 149.0,501.1 87.5,465.6" fill="#bdb7ac" stroke="#9a968d" stroke-width="0.6" stroke-linejoin="round"/><polygon points="291.2,450.3 149.0,532.4 149.0,501.1 291.2,419.0" fill="#a29d93" stroke="#858179" stroke-width="0.6" stroke-linejoin="round"/><polygon points="87.5,497.0 149.0,532.4 149.0,501.1 87.5,465.6" fill="#8b877f" stroke="#726f68" stroke-width="0.6" stroke-linejoin="round"/><polygon points="229.8,370.1 291.2,405.5 281.5,411.1 220.1,375.7" fill="#bdb7ac" stroke="#9a968d" stroke-width="0.6" stroke-linejoin="round"/><polygon points="291.2,419.0 281.5,424.6 281.5,411.1 291.2,405.5" fill="#a29d93" stroke="#858179" stroke-width="0.6" stroke-linejoin="round"/><polygon points="220.1,389.1 281.5,424.6 281.5,411.1 220.1,375.7" fill="#8b877f" stroke="#726f68" stroke-width="0.6" stroke-linejoin="round"/><polygon points="229.8,351.4 245.9,360.7 103.7,442.8 87.5,433.5" fill="#bdb7ac" stroke="#9a968d" stroke-width="0.6" stroke-linejoin="round"/><polygon points="245.9,392.8 103.7,474.9 103.7,442.8 245.9,360.7" fill="#a29d93" stroke="#858179" stroke-width="0.6" stroke-linejoin="round"/><polygon points="87.5,465.6 103.7,474.9 103.7,442.8 87.5,433.5" fill="#8b877f" stroke="#726f68" stroke-width="0.6" stroke-linejoin="round"/><polygon points="223.3,383.5 234.3,389.8 202.0,408.5 191.0,402.2" fill="#9dae92" stroke="#808e77" stroke-width="0.6" stroke-linejoin="round"/><polygon points="234.3,412.2 202.0,430.9 202.0,408.5 234.3,389.8" fill="#87957d" stroke="#6e7a66" stroke-width="0.6" stroke-linejoin="round"/><polygon points="191.0,424.6 202.0,430.9 202.0,408.5 191.0,402.2" fill="#74806c" stroke="#5f6958" stroke-width="0.6" stroke-linejoin="round"/><polygon points="158.7,420.8 169.6,427.2 137.3,445.8 126.3,439.5" fill="#dcc29c" stroke="#b49f7f" stroke-width="0.6" stroke-linejoin="round"/><polygon points="169.6,449.6 137.3,468.2 137.3,445.8 169.6,427.2" fill="#bda686" stroke="#9b886e" stroke-width="0.6" stroke-linejoin="round"/><polygon points="126.3,461.9 137.3,468.2 137.3,445.8 126.3,439.5" fill="#a28f73" stroke="#85755e" stroke-width="0.6" stroke-linejoin="round"/><polygon points="275.0,455.2 378.5,514.9 262.1,582.1 158.7,522.3" fill="#e3dacb" stroke="#bab2a6" stroke-width="0.6" stroke-linejoin="round"/><polygon points="378.5,515.6 262.1,582.8 262.1,582.1 378.5,514.9" fill="#c3bbae" stroke="#a0998f" stroke-width="0.6" stroke-linejoin="round"/><polygon points="158.7,523.1 262.1,582.8 262.1,582.1 158.7,522.3" fill="#a7a196" stroke="#89847b" stroke-width="0.6" stroke-linejoin="round"/><polygon points="97.2,446.6 158.7,482.0 149.0,487.6 87.5,452.2" fill="#bdb7ac" stroke="#9a968d" stroke-width="0.6" stroke-linejoin="round"/><polygon points="158.7,495.5 149.0,501.1 149.0,487.6 158.7,482.0" fill="#a29d93" stroke="#858179" stroke-width="0.6" stroke-linejoin="round"/><polygon points="87.5,465.6 149.0,501.1 149.0,487.6 87.5,452.2" fill="#8b877f" stroke="#726f68" stroke-width="0.6" stroke-linejoin="round"/><polygon points="262.1,461.9 294.4,480.5 255.6,502.9 223.3,484.3" fill="#c79e6e" stroke="#a3815a" stroke-width="0.6" stroke-linejoin="round"/><polygon points="294.4,511.9 255.6,534.3 255.6,502.9 294.4,480.5" fill="#ab875e" stroke="#8c6f4d" stroke-width="0.6" stroke-linejoin="round"/><polygon points="223.3,515.6 255.6,534.3 255.6,502.9 223.3,484.3" fill="#937451" stroke="#785f42" stroke-width="0.6" stroke-linejoin="round"/><polygon points="90.8,401.8 94.0,403.7 90.8,405.5 87.5,403.7" fill="#4b4845" stroke="#3d3b38" stroke-width="0.6" stroke-linejoin="round"/><polygon points="94.0,511.9 90.8,513.8 90.8,405.5 94.0,403.7" fill="#403d3b" stroke="#343230" stroke-width="0.6" stroke-linejoin="round"/><polygon points="87.5,511.9 90.8,513.8 90.8,405.5 87.5,403.7" fill="#373533" stroke="#2d2b29" stroke-width="0.6" stroke-linejoin="round"/><polygon points="90.8,377.9 109.5,388.7 90.8,399.5 72.0,388.7" fill="#eee8de" stroke="#c3beb6" stroke-width="0.6" stroke-linejoin="round"/><polygon points="109.5,407.4 90.8,418.2 90.8,399.5 109.5,388.7" fill="#ccc7be" stroke="#a7a39c" stroke-width="0.6" stroke-linejoin="round"/><polygon points="72.0,407.4 90.8,418.2 90.8,399.5 72.0,388.7" fill="#b0aba4" stroke="#908c86" stroke-width="0.6" stroke-linejoin="round"/><polygon points="297.6,513.8 325.4,529.8 247.9,574.6 220.1,558.6" fill="#f4f1eb" stroke="#c8c5c0" stroke-width="0.6" stroke-linejoin="round"/><polygon points="325.4,559.7 247.9,604.5 247.9,574.6 325.4,529.8" fill="#d1cfca" stroke="#aca9a5" stroke-width="0.6" stroke-linejoin="round"/><polygon points="220.1,588.4 247.9,604.5 247.9,574.6 220.1,558.6" fill="#b4b2ad" stroke="#94928e" stroke-width="0.6" stroke-linejoin="round"/><polygon points="312.5,462.6 315.7,464.5 257.6,498.1 254.3,496.2" fill="#4b4845" stroke="#3d3b38" stroke-width="0.6" stroke-linejoin="round"/><polygon points="315.7,505.6 257.6,539.1 257.6,498.1 315.7,464.5" fill="#403d3b" stroke="#343230" stroke-width="0.6" stroke-linejoin="round"/><polygon points="254.3,537.3 257.6,539.1 257.6,498.1 254.3,496.2" fill="#373533" stroke="#2d2b29" stroke-width="0.6" stroke-linejoin="round"/><polygon points="579.5,427.9 718.5,508.2 381.0,703.0 242.0,622.8" fill="#d9bc93" stroke="#b19a78" stroke-width="0.6" stroke-linejoin="round"/><polygon points="718.5,512.6 381.0,707.5 381.0,703.0 718.5,508.2" fill="#baa17e" stroke="#998467" stroke-width="0.6" stroke-linejoin="round"/><polygon points="242.0,627.2 381.0,707.5 381.0,703.0 242.0,622.8" fill="#a08b6c" stroke="#837259" stroke-width="0.6" stroke-linejoin="round"/><polygon points="579.5,353.3 587.3,357.7 469.0,426.0 461.2,421.6" fill="#8f877c" stroke="#756e65" stroke-width="0.6" stroke-linejoin="round"/><polygon points="587.3,432.4 469.0,500.7 469.0,426.0 587.3,357.7" fill="#ccc8c0" stroke="#a7a49d" stroke-width="0.6" stroke-linejoin="round"/><polygon points="461.2,496.2 469.0,500.7 469.0,426.0 461.2,421.6" fill="#b0aca5" stroke="#908d87" stroke-width="0.6" stroke-linejoin="round"/><polygon points="626.1,402.5 710.1,451.1 703.6,454.8 619.6,406.3" fill="#f4f1eb" stroke="#c8c5c0" stroke-width="0.6" stroke-linejoin="round"/><polygon points="710.1,492.1 703.6,495.8 703.6,454.8 710.1,451.1" fill="#d1cfca" stroke="#aca9a5" stroke-width="0.6" stroke-linejoin="round"/><polygon points="619.6,447.3 703.6,495.8 703.6,454.8 619.6,406.3" fill="#b4b2ad" stroke="#94928e" stroke-width="0.6" stroke-linejoin="round"/><polygon points="591.8,444.7 595.7,447.0 591.8,449.2 587.9,447.0" fill="#4b4845" stroke="#3d3b38" stroke-width="0.6" stroke-linejoin="round"/><polygon points="595.7,500.7 591.8,502.9 591.8,449.2 595.7,447.0" fill="#403d3b" stroke="#343230" stroke-width="0.6" stroke-linejoin="round"/><polygon points="587.9,500.7 591.8,502.9 591.8,449.2 587.9,447.0" fill="#373533" stroke="#2d2b29" stroke-width="0.6" stroke-linejoin="round"/><polygon points="334.5,494.7 342.3,499.2 249.8,552.6 242.0,548.1" fill="#8f877c" stroke="#756e65" stroke-width="0.6" stroke-linejoin="round"/><polygon points="342.3,573.9 249.8,627.2 249.8,552.6 342.3,499.2" fill="#ccc8c0" stroke="#a7a49d" stroke-width="0.6" stroke-linejoin="round"/><polygon points="242.0,622.8 249.8,627.2 249.8,552.6 242.0,548.1" fill="#b0aca5" stroke="#908d87" stroke-width="0.6" stroke-linejoin="round"/><polygon points="435.4,541.0 438.6,542.9 386.9,572.7 383.6,570.9" fill="#4b4845" stroke="#3d3b38" stroke-width="0.6" stroke-linejoin="round"/><polygon points="438.6,550.3 386.9,580.2 386.9,572.7 438.6,542.9" fill="#403d3b" stroke="#343230" stroke-width="0.6" stroke-linejoin="round"/><polygon points="383.6,578.3 386.9,580.2 386.9,572.7 383.6,570.9" fill="#373533" stroke="#2d2b29" stroke-width="0.6" stroke-linejoin="round"/><polygon points="547.2,425.7 573.1,440.6 545.9,456.3 520.0,441.4" fill="#dcc29c" stroke="#b49f7f" stroke-width="0.6" stroke-linejoin="round"/><polygon points="573.1,474.2 545.9,489.9 545.9,456.3 573.1,440.6" fill="#bda686" stroke="#9b886e" stroke-width="0.6" stroke-linejoin="round"/><polygon points="520.0,474.9 545.9,489.9 545.9,456.3 520.0,441.4" fill="#a28f73" stroke="#85755e" stroke-width="0.6" stroke-linejoin="round"/><polygon points="591.8,368.6 611.2,379.8 591.8,391.0 572.4,379.8" fill="#c79e6e" stroke="#a3815a" stroke-width="0.6" stroke-linejoin="round"/><polygon points="611.2,394.7 591.8,405.9 591.8,391.0 611.2,379.8" fill="#ab875e" stroke="#8c6f4d" stroke-width="0.6" stroke-linejoin="round"/><polygon points="572.4,394.7 591.8,405.9 591.8,391.0 572.4,379.8" fill="#937451" stroke="#785f42" stroke-width="0.6" stroke-linejoin="round"/><polygon points="339.7,373.8 378.5,396.2 288.6,448.1 249.8,425.7" fill="#dcc29c" stroke="#b49f7f" stroke-width="0.6" stroke-linejoin="round"/><polygon points="378.5,597.7 288.6,649.6 288.6,448.1 378.5,396.2" fill="#bda686" stroke="#9b886e" stroke-width="0.6" stroke-linejoin="round"/><polygon points="249.8,627.2 288.6,649.6 288.6,448.1 249.8,425.7" fill="#a28f73" stroke="#85755e" stroke-width="0.6" stroke-linejoin="round"/><polygon points="547.2,423.4 573.1,438.4 545.9,454.0 520.0,439.1" fill="#f4f1eb" stroke="#c8c5c0" stroke-width="0.6" stroke-linejoin="round"/><polygon points="573.1,440.6 545.9,456.3 545.9,454.0 573.1,438.4" fill="#d1cfca" stroke="#aca9a5" stroke-width="0.6" stroke-linejoin="round"/><polygon points="520.0,441.4 545.9,456.3 545.9,454.0 520.0,439.1" fill="#b4b2ad" stroke="#94928e" stroke-width="0.6" stroke-linejoin="round"/><polygon points="55.9,440.6 311.2,588.0 298.3,595.5 42.9,448.1" fill="#8f877c" stroke="#756e65" stroke-width="0.6" stroke-linejoin="round"/><polygon points="311.2,662.7 298.3,670.2 298.3,595.5 311.2,588.0" fill="#ccc8c0" stroke="#a7a49d" stroke-width="0.6" stroke-linejoin="round"/><polygon points="42.9,522.7 298.3,670.2 298.3,595.5 42.9,448.1" fill="#b0aca5" stroke="#908d87" stroke-width="0.6" stroke-linejoin="round"/><polygon points="591.8,297.7 594.4,299.1 591.8,300.6 589.2,299.1" fill="#4b4845" stroke="#3d3b38" stroke-width="0.6" stroke-linejoin="round"/><polygon points="594.4,381.3 591.8,382.8 591.8,300.6 594.4,299.1" fill="#403d3b" stroke="#343230" stroke-width="0.6" stroke-linejoin="round"/><polygon points="589.2,381.3 591.8,382.8 591.8,300.6 589.2,299.1" fill="#373533" stroke="#2d2b29" stroke-width="0.6" stroke-linejoin="round"/><polygon points="372.0,526.8 373.3,527.6 334.5,550.0 333.2,549.2" fill="#bcd6dc" fill-opacity="0.45" stroke="#9aafb4" stroke-width="0.6" stroke-linejoin="round"/><polygon points="373.3,594.8 334.5,617.2 334.5,550.0 373.3,527.6" fill="#a1b8bd" fill-opacity="0.45" stroke="#84969b" stroke-width="0.6" stroke-linejoin="round"/><polygon points="333.2,616.4 334.5,617.2 334.5,550.0 333.2,549.2" fill="#8b9ea2" fill-opacity="0.45" stroke="#728185" stroke-width="0.6" stroke-linejoin="round"/><polygon points="419.2,621.3 441.8,634.3 383.6,667.9 361.0,654.9" fill="#c79e6e" stroke="#a3815a" stroke-width="0.6" stroke-linejoin="round"/><polygon points="441.8,667.9 383.6,701.5 383.6,667.9 441.8,634.3" fill="#ab875e" stroke="#8c6f4d" stroke-width="0.6" stroke-linejoin="round"/><polygon points="361.0,688.4 383.6,701.5 383.6,667.9 361.0,654.9" fill="#937451" stroke="#785f42" stroke-width="0.6" stroke-linejoin="round"/><polygon points="591.8,411.1 650.0,444.7 591.8,478.3 533.6,444.7" fill="#c79e6e" stroke="#a3815a" stroke-width="0.6" stroke-linejoin="round"/><polygon points="650.0,447.0 591.8,480.5 591.8,478.3 650.0,444.7" fill="#ab875e" stroke="#8c6f4d" stroke-width="0.6" stroke-linejoin="round"/><polygon points="533.6,447.0 591.8,480.5 591.8,478.3 533.6,444.7" fill="#937451" stroke="#785f42" stroke-width="0.6" stroke-linejoin="round"/><polygon points="451.5,587.7 458.0,591.4 387.5,632.1 381.0,628.4" fill="#8f877c" stroke="#756e65" stroke-width="0.6" stroke-linejoin="round"/><polygon points="458.0,666.1 387.5,706.7 387.5,632.1 458.0,591.4" fill="#ccc8c0" stroke="#a7a49d" stroke-width="0.6" stroke-linejoin="round"/><polygon points="381.0,703.0 387.5,706.7 387.5,632.1 381.0,628.4" fill="#b0aca5" stroke="#908d87" stroke-width="0.6" stroke-linejoin="round"/><polygon points="637.7,477.9 663.6,492.9 636.4,508.5 610.6,493.6" fill="#dcc29c" stroke="#b49f7f" stroke-width="0.6" stroke-linejoin="round"/><polygon points="663.6,526.5 636.4,542.1 636.4,508.5 663.6,492.9" fill="#bda686" stroke="#9b886e" stroke-width="0.6" stroke-linejoin="round"/><polygon points="610.6,527.2 636.4,542.1 636.4,508.5 610.6,493.6" fill="#a28f73" stroke="#85755e" stroke-width="0.6" stroke-linejoin="round"/><polygon points="545.9,477.9 573.1,493.6 547.2,508.5 520.0,492.9" fill="#dcc29c" stroke="#b49f7f" stroke-width="0.6" stroke-linejoin="round"/><polygon points="573.1,527.2 547.2,542.1 547.2,508.5 573.1,493.6" fill="#bda686" stroke="#9b886e" stroke-width="0.6" stroke-linejoin="round"/><polygon points="520.0,526.5 547.2,542.1 547.2,508.5 520.0,492.9" fill="#a28f73" stroke="#85755e" stroke-width="0.6" stroke-linejoin="round"/><polygon points="637.7,475.7 663.6,490.6 636.4,506.3 610.6,491.4" fill="#f4f1eb" stroke="#c8c5c0" stroke-width="0.6" stroke-linejoin="round"/><polygon points="663.6,492.9 636.4,508.5 636.4,506.3 663.6,490.6" fill="#d1cfca" stroke="#aca9a5" stroke-width="0.6" stroke-linejoin="round"/><polygon points="610.6,493.6 636.4,508.5 636.4,506.3 610.6,491.4" fill="#b4b2ad" stroke="#94928e" stroke-width="0.6" stroke-linejoin="round"/><polygon points="545.9,475.7 573.1,491.4 547.2,506.3 520.0,490.6" fill="#f4f1eb" stroke="#c8c5c0" stroke-width="0.6" stroke-linejoin="round"/><polygon points="573.1,493.6 547.2,508.5 547.2,506.3 573.1,491.4" fill="#d1cfca" stroke="#aca9a5" stroke-width="0.6" stroke-linejoin="round"/><polygon points="520.0,492.9 547.2,508.5 547.2,506.3 520.0,490.6" fill="#b4b2ad" stroke="#94928e" stroke-width="0.6" stroke-linejoin="round"/><polygon points="718.5,508.2 829.7,572.4 657.1,672.0 545.9,607.8" fill="#d9bc93" stroke="#b19a78" stroke-width="0.6" stroke-linejoin="round"/><polygon points="829.7,576.8 657.1,676.5 657.1,672.0 829.7,572.4" fill="#baa17e" stroke="#998467" stroke-width="0.6" stroke-linejoin="round"/><polygon points="545.9,612.3 657.1,676.5 657.1,672.0 545.9,607.8" fill="#a08b6c" stroke="#837259" stroke-width="0.6" stroke-linejoin="round"/><polygon points="790.9,348.4 829.7,370.8 790.9,393.2 752.1,370.8" fill="#f4f1eb" stroke="#c8c5c0" stroke-width="0.6" stroke-linejoin="round"/><polygon points="829.7,572.4 790.9,594.8 790.9,393.2 829.7,370.8" fill="#d1cfca" stroke="#aca9a5" stroke-width="0.6" stroke-linejoin="round"/><polygon points="752.1,572.4 790.9,594.8 790.9,393.2 752.1,370.8" fill="#b4b2ad" stroke="#94928e" stroke-width="0.6" stroke-linejoin="round"/><polygon points="752.1,508.2 790.9,530.6 703.6,580.9 664.9,558.6" fill="#f4f1eb" stroke="#c8c5c0" stroke-width="0.6" stroke-linejoin="round"/><polygon points="790.9,594.8 703.6,645.1 703.6,580.9 790.9,530.6" fill="#d1cfca" stroke="#aca9a5" stroke-width="0.6" stroke-linejoin="round"/><polygon points="664.9,622.8 703.6,645.1 703.6,580.9 664.9,558.6" fill="#b4b2ad" stroke="#94928e" stroke-width="0.6" stroke-linejoin="round"/><polygon points="931.2,439.1 944.1,446.6 492.2,707.5 479.3,700.0" fill="#8f877c" stroke="#756e65" stroke-width="0.6" stroke-linejoin="round"/><polygon points="944.1,521.2 492.2,782.1 492.2,707.5 944.1,446.6" fill="#ccc8c0" stroke="#a7a49d" stroke-width="0.6" stroke-linejoin="round"/><polygon points="479.3,774.7 492.2,782.1 492.2,707.5 479.3,700.0" fill="#b0aca5" stroke="#908d87" stroke-width="0.6" stroke-linejoin="round"/><polygon points="587.3,513.8 703.6,580.9 664.9,603.3 548.5,536.2" fill="#f4f1eb" stroke="#c8c5c0" stroke-width="0.6" stroke-linejoin="round"/><polygon points="703.6,645.1 664.9,667.5 664.9,603.3 703.6,580.9" fill="#d1cfca" stroke="#aca9a5" stroke-width="0.6" stroke-linejoin="round"/><polygon points="548.5,600.4 664.9,667.5 664.9,603.3 548.5,536.2" fill="#b4b2ad" stroke="#94928e" stroke-width="0.6" stroke-linejoin="round"/><polygon points="589.2,509.7 664.9,553.3 624.1,576.8 548.5,533.2" fill="#c79e6e" stroke="#a3815a" stroke-width="0.6" stroke-linejoin="round"/><polygon points="664.9,556.3 624.1,579.8 624.1,576.8 664.9,553.3" fill="#ab875e" stroke="#8c6f4d" stroke-width="0.6" stroke-linejoin="round"/><polygon points="548.5,536.2 624.1,579.8 624.1,576.8 548.5,533.2" fill="#937451" stroke="#785f42" stroke-width="0.6" stroke-linejoin="round"/><polygon points="617.7,532.8 650.0,551.5 620.9,568.3 588.6,549.6" fill="#a9a9a6" stroke="#8a8a88" stroke-width="0.6" stroke-linejoin="round"/><polygon points="650.0,554.4 620.9,571.2 620.9,568.3 650.0,551.5" fill="#91918e" stroke="#777775" stroke-width="0.6" stroke-linejoin="round"/><polygon points="588.6,552.6 620.9,571.2 620.9,568.3 588.6,549.6" fill="#7d7d7a" stroke="#666664" stroke-width="0.6" stroke-linejoin="round"/><polygon points="750.2,504.1 790.9,527.6 664.9,600.4 624.1,576.8" fill="#c79e6e" stroke="#a3815a" stroke-width="0.6" stroke-linejoin="round"/><polygon points="790.9,530.6 664.9,603.3 664.9,600.4 790.9,527.6" fill="#ab875e" stroke="#8c6f4d" stroke-width="0.6" stroke-linejoin="round"/><polygon points="624.1,579.8 664.9,603.3 664.9,600.4 624.1,576.8" fill="#937451" stroke="#785f42" stroke-width="0.6" stroke-linejoin="round"/><polygon points="734.0,522.3 759.9,537.3 721.1,559.7 695.2,544.7" fill="#4b4845" stroke="#3d3b38" stroke-width="0.6" stroke-linejoin="round"/><polygon points="759.9,538.0 721.1,560.4 721.1,559.7 759.9,537.3" fill="#403d3b" stroke="#343230" stroke-width="0.6" stroke-linejoin="round"/><polygon points="695.2,545.5 721.1,560.4 721.1,559.7 695.2,544.7" fill="#373533" stroke="#2d2b29" stroke-width="0.6" stroke-linejoin="round"/><polygon points="571.1,385.7 664.9,439.9 642.2,452.9 548.5,398.8" fill="#f4f1eb" stroke="#c8c5c0" stroke-width="0.6" stroke-linejoin="round"/><polygon points="664.9,529.4 642.2,542.5 642.2,452.9 664.9,439.9" fill="#d1cfca" stroke="#aca9a5" stroke-width="0.6" stroke-linejoin="round"/><polygon points="548.5,488.4 642.2,542.5 642.2,452.9 548.5,398.8" fill="#b4b2ad" stroke="#94928e" stroke-width="0.6" stroke-linejoin="round"/><polygon points="768.3,380.1 790.9,393.2 664.9,466.0 642.2,452.9" fill="#f4f1eb" stroke="#c8c5c0" stroke-width="0.6" stroke-linejoin="round"/><polygon points="790.9,482.8 664.9,555.6 664.9,466.0 790.9,393.2" fill="#d1cfca" stroke="#aca9a5" stroke-width="0.6" stroke-linejoin="round"/><polygon points="642.2,542.5 664.9,555.6 664.9,466.0 642.2,452.9" fill="#b4b2ad" stroke="#94928e" stroke-width="0.6" stroke-linejoin="round"/><polygon points="542.0,522.0 664.9,592.9 657.1,597.4 534.3,526.5" fill="#8f877c" stroke="#756e65" stroke-width="0.6" stroke-linejoin="round"/><polygon points="664.9,667.5 657.1,672.0 657.1,597.4 664.9,592.9" fill="#ccc8c0" stroke="#a7a49d" stroke-width="0.6" stroke-linejoin="round"/><polygon points="534.3,601.1 657.1,672.0 657.1,597.4 534.3,526.5" fill="#b0aca5" stroke="#908d87" stroke-width="0.6" stroke-linejoin="round"/><polygon points="545.9,533.2 552.4,536.9 503.2,565.3 496.8,561.5" fill="#8f877c" stroke="#756e65" stroke-width="0.6" stroke-linejoin="round"/><polygon points="552.4,611.6 503.2,639.9 503.2,565.3 552.4,536.9" fill="#ccc8c0" stroke="#a7a49d" stroke-width="0.6" stroke-linejoin="round"/><polygon points="496.8,636.2 503.2,639.9 503.2,565.3 496.8,561.5" fill="#b0aca5" stroke="#908d87" stroke-width="0.6" stroke-linejoin="round"/><polygon points="552.4,611.6 657.1,672.0 492.2,767.2 387.5,706.7" fill="#cfcbc4" stroke="#a9a6a0" stroke-width="0.6" stroke-linejoin="round"/><polygon points="657.1,676.5 492.2,771.7 492.2,767.2 657.1,672.0" fill="#b2aea8" stroke="#918f8a" stroke-width="0.6" stroke-linejoin="round"/><polygon points="387.5,711.2 492.2,771.7 492.2,767.2 387.5,706.7" fill="#999691" stroke="#7d7b76" stroke-width="0.6" stroke-linejoin="round"/><polygon points="553.7,548.8 592.4,571.2 553.7,593.6 514.9,571.2" fill="#f4f1eb" stroke="#c8c5c0" stroke-width="0.6" stroke-linejoin="round"/><polygon points="592.4,634.7 553.7,657.1 553.7,593.6 592.4,571.2" fill="#d1cfca" stroke="#aca9a5" stroke-width="0.6" stroke-linejoin="round"/><polygon points="514.9,634.7 553.7,657.1 553.7,593.6 514.9,571.2" fill="#b4b2ad" stroke="#94928e" stroke-width="0.6" stroke-linejoin="round"/><polygon points="452.8,549.6 456.0,551.5 439.2,561.2 436.0,559.3" fill="#4b4845" stroke="#3d3b38" stroke-width="0.6" stroke-linejoin="round"/><polygon points="456.0,603.7 439.2,613.4 439.2,561.2 456.0,551.5" fill="#403d3b" stroke="#343230" stroke-width="0.6" stroke-linejoin="round"/><polygon points="436.0,611.6 439.2,613.4 439.2,561.2 436.0,559.3" fill="#373533" stroke="#2d2b29" stroke-width="0.6" stroke-linejoin="round"/><polygon points="592.4,571.2 633.2,594.8 600.9,613.4 560.1,589.9" fill="#f4f1eb" stroke="#c8c5c0" stroke-width="0.6" stroke-linejoin="round"/><polygon points="633.2,643.3 600.9,661.9 600.9,613.4 633.2,594.8" fill="#d1cfca" stroke="#aca9a5" stroke-width="0.6" stroke-linejoin="round"/><polygon points="560.1,638.4 600.9,661.9 600.9,613.4 560.1,589.9" fill="#b4b2ad" stroke="#94928e" stroke-width="0.6" stroke-linejoin="round"/><polygon points="435.4,604.5 488.4,635.1 485.8,636.6 432.8,606.0" fill="#bcd6dc" fill-opacity="0.45" stroke="#9aafb4" stroke-width="0.6" stroke-linejoin="round"/><polygon points="488.4,664.9 485.8,666.4 485.8,636.6 488.4,635.1" fill="#a1b8bd" fill-opacity="0.45" stroke="#84969b" stroke-width="0.6" stroke-linejoin="round"/><polygon points="432.8,635.8 485.8,666.4 485.8,636.6 432.8,606.0" fill="#8b9ea2" fill-opacity="0.45" stroke="#728185" stroke-width="0.6" stroke-linejoin="round"/><polygon points="552.4,544.4 634.5,591.8 595.7,614.2 513.6,566.8" fill="#c79e6e" stroke="#a3815a" stroke-width="0.6" stroke-linejoin="round"/><polygon points="634.5,594.8 595.7,617.2 595.7,614.2 634.5,591.8" fill="#ab875e" stroke="#8c6f4d" stroke-width="0.6" stroke-linejoin="round"/><polygon points="513.6,569.8 595.7,617.2 595.7,614.2 513.6,566.8" fill="#937451" stroke="#785f42" stroke-width="0.6" stroke-linejoin="round"/><polygon points="560.8,640.3 596.3,660.8 570.5,675.8 534.9,655.2" fill="#f4f1eb" stroke="#c8c5c0" stroke-width="0.6" stroke-linejoin="round"/><polygon points="596.3,673.5 570.5,688.4 570.5,675.8 596.3,660.8" fill="#d1cfca" stroke="#aca9a5" stroke-width="0.6" stroke-linejoin="round"/><polygon points="534.9,667.9 570.5,688.4 570.5,675.8 534.9,655.2" fill="#b4b2ad" stroke="#94928e" stroke-width="0.6" stroke-linejoin="round"/><polygon points="595.0,566.0 624.1,582.8 597.0,598.5 567.9,581.7" fill="#f4f1eb" stroke="#c8c5c0" stroke-width="0.6" stroke-linejoin="round"/><polygon points="624.1,590.3 597.0,606.0 597.0,598.5 624.1,582.8" fill="#d1cfca" stroke="#aca9a5" stroke-width="0.6" stroke-linejoin="round"/><polygon points="567.9,589.2 597.0,606.0 597.0,598.5 567.9,581.7" fill="#b4b2ad" stroke="#94928e" stroke-width="0.6" stroke-linejoin="round"/><polygon points="432.8,635.8 537.5,696.3 492.2,722.4 387.5,661.9" fill="#f4f1eb" stroke="#c8c5c0" stroke-width="0.6" stroke-linejoin="round"/><polygon points="537.5,741.1 492.2,767.2 492.2,722.4 537.5,696.3" fill="#d1cfca" stroke="#aca9a5" stroke-width="0.6" stroke-linejoin="round"/><polygon points="387.5,706.7 492.2,767.2 492.2,722.4 387.5,661.9" fill="#b4b2ad" stroke="#94928e" stroke-width="0.6" stroke-linejoin="round"/><polygon points="634.5,457.4 657.1,470.5 633.8,483.9 611.2,470.8" fill="#cfcbc4" stroke="#a9a6a0" stroke-width="0.6" stroke-linejoin="round"/><polygon points="657.1,672.0 633.8,685.5 633.8,483.9 657.1,470.5" fill="#b2aea8" stroke="#918f8a" stroke-width="0.6" stroke-linejoin="round"/><polygon points="611.2,672.4 633.8,685.5 633.8,483.9 611.2,470.8" fill="#999691" stroke="#7d7b76" stroke-width="0.6" stroke-linejoin="round"/><polygon points="369.4,621.6 492.2,692.6 479.3,700.0 356.5,629.1" fill="#8f877c" stroke="#756e65" stroke-width="0.6" stroke-linejoin="round"/><polygon points="492.2,767.2 479.3,774.7 479.3,700.0 492.2,692.6" fill="#ccc8c0" stroke="#a7a49d" stroke-width="0.6" stroke-linejoin="round"/><polygon points="356.5,703.7 479.3,774.7 479.3,700.0 356.5,629.1" fill="#b0aca5" stroke="#908d87" stroke-width="0.6" stroke-linejoin="round"/><polygon points="604.7,597.7 617.7,605.2 575.6,629.5 562.7,622.0" fill="#f4f1eb" stroke="#c8c5c0" stroke-width="0.6" stroke-linejoin="round"/><polygon points="617.7,694.8 575.6,719.1 575.6,629.5 617.7,605.2" fill="#d1cfca" stroke="#aca9a5" stroke-width="0.6" stroke-linejoin="round"/><polygon points="562.7,711.6 575.6,719.1 575.6,629.5 562.7,622.0" fill="#b4b2ad" stroke="#94928e" stroke-width="0.6" stroke-linejoin="round"/></svg>